<svg xmlns="http://www.w3.org/2000/svg" width="32" height="32">
    <path style="stroke:none;fill-rule:nonzero;fill:#000;fill-opacity:1" d="M13.332 28h5.336a2.669 2.669 0 0 1-5.336 0M28 25.332v1.336H4v-1.336l2.668-2.664v-8a9.327 9.327 0 0 1 6.664-8.95v-.386A2.666 2.666 0 0 1 16 2.668a2.666 2.666 0 0 1 2.668 2.664v.387a9.327 9.327 0 0 1 6.664 8.949v8L28 25.332m-5.332-10.664A6.667 6.667 0 0 0 16 8a6.667 6.667 0 0 0-6.668 6.668V24h13.336v-9.332m3.664-10.414-1.89 1.894A11.973 11.973 0 0 1 28 14.668h2.668c0-3.906-1.547-7.668-4.336-10.414m-25 10.414H4c0-3.203 1.281-6.27 3.559-8.52L5.668 4.254C2.878 7 1.332 10.762 1.332 14.668zm0 0"/>
</svg>
